<mxfile host="app.diagrams.net" agent="Mozilla/5.0 (Macintosh; Intel Mac OS X 10_15_7) AppleWebKit/537.36 (KHTML, like Gecko) Chrome/127.0.0.0 Safari/537.36" version="24.7.6">
  <diagram name="Page-1" id="FGdR298zNR_Bf5p4Txep">
    <mxGraphModel dx="4485" dy="2280" grid="1" gridSize="10" guides="1" tooltips="1" connect="1" arrows="1" fold="1" page="0" pageScale="1" pageWidth="827" pageHeight="1169" math="0" shadow="0">
      <root>
        <mxCell id="0" />
        <mxCell id="1" parent="0" />
        <mxCell id="XaADTcSrrmSjubaQ3uNt-1" style="edgeStyle=orthogonalEdgeStyle;rounded=0;orthogonalLoop=1;jettySize=auto;html=1;entryX=0.5;entryY=0;entryDx=0;entryDy=0;" parent="1" source="XaADTcSrrmSjubaQ3uNt-2" target="XaADTcSrrmSjubaQ3uNt-5" edge="1">
          <mxGeometry relative="1" as="geometry" />
        </mxCell>
        <mxCell id="XaADTcSrrmSjubaQ3uNt-2" value="&lt;font style=&quot;font-size: 18px;&quot;&gt;table&lt;/font&gt;" style="rounded=1;whiteSpace=wrap;html=1;fontStyle=0" parent="1" vertex="1">
          <mxGeometry x="-90" y="190" width="120" height="60" as="geometry" />
        </mxCell>
        <mxCell id="XaADTcSrrmSjubaQ3uNt-3" style="edgeStyle=orthogonalEdgeStyle;rounded=0;orthogonalLoop=1;jettySize=auto;html=1;entryX=1;entryY=0.5;entryDx=0;entryDy=0;" parent="1" source="XaADTcSrrmSjubaQ3uNt-5" target="XaADTcSrrmSjubaQ3uNt-12" edge="1">
          <mxGeometry relative="1" as="geometry" />
        </mxCell>
        <mxCell id="XaADTcSrrmSjubaQ3uNt-4" style="edgeStyle=orthogonalEdgeStyle;rounded=0;orthogonalLoop=1;jettySize=auto;html=1;entryX=0.5;entryY=0;entryDx=0;entryDy=0;" parent="1" source="XaADTcSrrmSjubaQ3uNt-5" target="XaADTcSrrmSjubaQ3uNt-7" edge="1">
          <mxGeometry relative="1" as="geometry" />
        </mxCell>
        <mxCell id="XaADTcSrrmSjubaQ3uNt-5" value="&lt;font style=&quot;font-size: 18px;&quot;&gt;order&lt;/font&gt;" style="rounded=1;whiteSpace=wrap;html=1;fontStyle=0" parent="1" vertex="1">
          <mxGeometry x="260" y="450" width="120" height="60" as="geometry" />
        </mxCell>
        <mxCell id="XaADTcSrrmSjubaQ3uNt-6" style="edgeStyle=orthogonalEdgeStyle;rounded=0;orthogonalLoop=1;jettySize=auto;html=1;entryX=1;entryY=0.5;entryDx=0;entryDy=0;" parent="1" source="XaADTcSrrmSjubaQ3uNt-7" target="XaADTcSrrmSjubaQ3uNt-13" edge="1">
          <mxGeometry relative="1" as="geometry" />
        </mxCell>
        <mxCell id="XaADTcSrrmSjubaQ3uNt-7" value="&lt;font style=&quot;font-size: 18px;&quot;&gt;orderItem&lt;/font&gt;" style="rounded=1;whiteSpace=wrap;html=1;fontStyle=0" parent="1" vertex="1">
          <mxGeometry x="260" y="710" width="120" height="60" as="geometry" />
        </mxCell>
        <mxCell id="XaADTcSrrmSjubaQ3uNt-8" value="&lt;font style=&quot;font-size: 18px;&quot;&gt;user&lt;/font&gt;" style="rounded=1;whiteSpace=wrap;html=1;fontStyle=0" parent="1" vertex="1">
          <mxGeometry x="-120" y="-60" width="120" height="60" as="geometry" />
        </mxCell>
        <mxCell id="XaADTcSrrmSjubaQ3uNt-9" value="&lt;font style=&quot;font-size: 18px;&quot;&gt;note&lt;/font&gt;" style="rounded=1;whiteSpace=wrap;html=1;fontStyle=0" parent="1" vertex="1">
          <mxGeometry x="-390" y="-60" width="120" height="60" as="geometry" />
        </mxCell>
        <mxCell id="XaADTcSrrmSjubaQ3uNt-10" style="edgeStyle=orthogonalEdgeStyle;rounded=0;orthogonalLoop=1;jettySize=auto;html=1;entryX=0;entryY=0.5;entryDx=0;entryDy=0;exitX=0.5;exitY=1;exitDx=0;exitDy=0;" parent="1" source="XaADTcSrrmSjubaQ3uNt-11" target="XaADTcSrrmSjubaQ3uNt-13" edge="1">
          <mxGeometry relative="1" as="geometry" />
        </mxCell>
        <mxCell id="XaADTcSrrmSjubaQ3uNt-11" value="&lt;font style=&quot;font-size: 18px;&quot;&gt;menu&lt;/font&gt;" style="rounded=1;whiteSpace=wrap;html=1;fontStyle=0" parent="1" vertex="1">
          <mxGeometry x="-440" y="460" width="120" height="60" as="geometry" />
        </mxCell>
        <mxCell id="XaADTcSrrmSjubaQ3uNt-12" value="&lt;font style=&quot;font-size: 18px;&quot;&gt;invoice&lt;/font&gt;" style="rounded=1;whiteSpace=wrap;html=1;fontStyle=0" parent="1" vertex="1">
          <mxGeometry x="-90" y="450" width="120" height="60" as="geometry" />
        </mxCell>
        <mxCell id="XaADTcSrrmSjubaQ3uNt-13" value="&lt;font style=&quot;font-size: 18px;&quot;&gt;food&lt;/font&gt;" style="rounded=1;whiteSpace=wrap;html=1;fontStyle=0" parent="1" vertex="1">
          <mxGeometry x="-90" y="710" width="120" height="60" as="geometry" />
        </mxCell>
        <mxCell id="XaADTcSrrmSjubaQ3uNt-14" value="Food" style="swimlane;fontStyle=0;childLayout=stackLayout;horizontal=1;startSize=26;fillColor=none;horizontalStack=0;resizeParent=1;resizeParentMax=0;resizeLast=0;collapsible=1;marginBottom=0;whiteSpace=wrap;html=1;" parent="1" vertex="1">
          <mxGeometry x="-810" y="950" width="140" height="130" as="geometry" />
        </mxCell>
        <mxCell id="XaADTcSrrmSjubaQ3uNt-15" value="+ name: varchar&lt;span style=&quot;white-space: pre;&quot;&gt;&#x9;&lt;/span&gt;" style="text;strokeColor=none;fillColor=none;align=left;verticalAlign=top;spacingLeft=4;spacingRight=4;overflow=hidden;rotatable=0;points=[[0,0.5],[1,0.5]];portConstraint=eastwest;whiteSpace=wrap;html=1;" parent="XaADTcSrrmSjubaQ3uNt-14" vertex="1">
          <mxGeometry y="26" width="140" height="26" as="geometry" />
        </mxCell>
        <mxCell id="XaADTcSrrmSjubaQ3uNt-16" value="+ price: decimal" style="text;strokeColor=none;fillColor=none;align=left;verticalAlign=top;spacingLeft=4;spacingRight=4;overflow=hidden;rotatable=0;points=[[0,0.5],[1,0.5]];portConstraint=eastwest;whiteSpace=wrap;html=1;" parent="XaADTcSrrmSjubaQ3uNt-14" vertex="1">
          <mxGeometry y="52" width="140" height="26" as="geometry" />
        </mxCell>
        <mxCell id="XaADTcSrrmSjubaQ3uNt-17" value="+ image: varchar" style="text;strokeColor=none;fillColor=none;align=left;verticalAlign=top;spacingLeft=4;spacingRight=4;overflow=hidden;rotatable=0;points=[[0,0.5],[1,0.5]];portConstraint=eastwest;whiteSpace=wrap;html=1;" parent="XaADTcSrrmSjubaQ3uNt-14" vertex="1">
          <mxGeometry y="78" width="140" height="26" as="geometry" />
        </mxCell>
        <mxCell id="XaADTcSrrmSjubaQ3uNt-27" value="+ menuID: foreign key" style="text;strokeColor=none;fillColor=none;align=left;verticalAlign=top;spacingLeft=4;spacingRight=4;overflow=hidden;rotatable=0;points=[[0,0.5],[1,0.5]];portConstraint=eastwest;whiteSpace=wrap;html=1;" parent="XaADTcSrrmSjubaQ3uNt-14" vertex="1">
          <mxGeometry y="104" width="140" height="26" as="geometry" />
        </mxCell>
        <mxCell id="XaADTcSrrmSjubaQ3uNt-18" value="invoice" style="swimlane;fontStyle=0;childLayout=stackLayout;horizontal=1;startSize=26;fillColor=none;horizontalStack=0;resizeParent=1;resizeParentMax=0;resizeLast=0;collapsible=1;marginBottom=0;whiteSpace=wrap;html=1;" parent="1" vertex="1">
          <mxGeometry x="-553" y="950" width="263" height="130" as="geometry" />
        </mxCell>
        <mxCell id="XaADTcSrrmSjubaQ3uNt-19" value="+ paymentMethod: varchar&lt;span style=&quot;white-space: pre;&quot;&gt;&#x9;&lt;/span&gt;" style="text;strokeColor=none;fillColor=none;align=left;verticalAlign=top;spacingLeft=4;spacingRight=4;overflow=hidden;rotatable=0;points=[[0,0.5],[1,0.5]];portConstraint=eastwest;whiteSpace=wrap;html=1;" parent="XaADTcSrrmSjubaQ3uNt-18" vertex="1">
          <mxGeometry y="26" width="263" height="26" as="geometry" />
        </mxCell>
        <mxCell id="XaADTcSrrmSjubaQ3uNt-20" value="+ paymentStatus: varchar" style="text;strokeColor=none;fillColor=none;align=left;verticalAlign=top;spacingLeft=4;spacingRight=4;overflow=hidden;rotatable=0;points=[[0,0.5],[1,0.5]];portConstraint=eastwest;whiteSpace=wrap;html=1;" parent="XaADTcSrrmSjubaQ3uNt-18" vertex="1">
          <mxGeometry y="52" width="263" height="26" as="geometry" />
        </mxCell>
        <mxCell id="XaADTcSrrmSjubaQ3uNt-21" value="+ paymentDueDate: date" style="text;strokeColor=none;fillColor=none;align=left;verticalAlign=top;spacingLeft=4;spacingRight=4;overflow=hidden;rotatable=0;points=[[0,0.5],[1,0.5]];portConstraint=eastwest;whiteSpace=wrap;html=1;" parent="XaADTcSrrmSjubaQ3uNt-18" vertex="1">
          <mxGeometry y="78" width="263" height="26" as="geometry" />
        </mxCell>
        <mxCell id="XaADTcSrrmSjubaQ3uNt-22" value="+ orderID: foreign key" style="text;strokeColor=none;fillColor=none;align=left;verticalAlign=top;spacingLeft=4;spacingRight=4;overflow=hidden;rotatable=0;points=[[0,0.5],[1,0.5]];portConstraint=eastwest;whiteSpace=wrap;html=1;" parent="XaADTcSrrmSjubaQ3uNt-18" vertex="1">
          <mxGeometry y="104" width="263" height="26" as="geometry" />
        </mxCell>
        <mxCell id="XaADTcSrrmSjubaQ3uNt-28" value="menu" style="swimlane;fontStyle=0;childLayout=stackLayout;horizontal=1;startSize=26;fillColor=none;horizontalStack=0;resizeParent=1;resizeParentMax=0;resizeLast=0;collapsible=1;marginBottom=0;whiteSpace=wrap;html=1;" parent="1" vertex="1">
          <mxGeometry x="-161.5" y="950" width="263" height="130" as="geometry" />
        </mxCell>
        <mxCell id="XaADTcSrrmSjubaQ3uNt-29" value="+ name: varchar&lt;span style=&quot;white-space: pre;&quot;&gt;&#x9;&lt;/span&gt;" style="text;strokeColor=none;fillColor=none;align=left;verticalAlign=top;spacingLeft=4;spacingRight=4;overflow=hidden;rotatable=0;points=[[0,0.5],[1,0.5]];portConstraint=eastwest;whiteSpace=wrap;html=1;" parent="XaADTcSrrmSjubaQ3uNt-28" vertex="1">
          <mxGeometry y="26" width="263" height="26" as="geometry" />
        </mxCell>
        <mxCell id="XaADTcSrrmSjubaQ3uNt-30" value="+ category: varchar" style="text;strokeColor=none;fillColor=none;align=left;verticalAlign=top;spacingLeft=4;spacingRight=4;overflow=hidden;rotatable=0;points=[[0,0.5],[1,0.5]];portConstraint=eastwest;whiteSpace=wrap;html=1;" parent="XaADTcSrrmSjubaQ3uNt-28" vertex="1">
          <mxGeometry y="52" width="263" height="26" as="geometry" />
        </mxCell>
        <mxCell id="XaADTcSrrmSjubaQ3uNt-31" value="+ startDate: date" style="text;strokeColor=none;fillColor=none;align=left;verticalAlign=top;spacingLeft=4;spacingRight=4;overflow=hidden;rotatable=0;points=[[0,0.5],[1,0.5]];portConstraint=eastwest;whiteSpace=wrap;html=1;" parent="XaADTcSrrmSjubaQ3uNt-28" vertex="1">
          <mxGeometry y="78" width="263" height="26" as="geometry" />
        </mxCell>
        <mxCell id="XaADTcSrrmSjubaQ3uNt-32" value="+ endDate: date" style="text;strokeColor=none;fillColor=none;align=left;verticalAlign=top;spacingLeft=4;spacingRight=4;overflow=hidden;rotatable=0;points=[[0,0.5],[1,0.5]];portConstraint=eastwest;whiteSpace=wrap;html=1;" parent="XaADTcSrrmSjubaQ3uNt-28" vertex="1">
          <mxGeometry y="104" width="263" height="26" as="geometry" />
        </mxCell>
        <mxCell id="XaADTcSrrmSjubaQ3uNt-34" value="note" style="swimlane;fontStyle=0;childLayout=stackLayout;horizontal=1;startSize=26;fillColor=none;horizontalStack=0;resizeParent=1;resizeParentMax=0;resizeLast=0;collapsible=1;marginBottom=0;whiteSpace=wrap;html=1;" parent="1" vertex="1">
          <mxGeometry x="210" y="950" width="263" height="78" as="geometry" />
        </mxCell>
        <mxCell id="XaADTcSrrmSjubaQ3uNt-35" value="+ title: varchar&lt;span style=&quot;white-space: pre;&quot;&gt;&#x9;&lt;/span&gt;" style="text;strokeColor=none;fillColor=none;align=left;verticalAlign=top;spacingLeft=4;spacingRight=4;overflow=hidden;rotatable=0;points=[[0,0.5],[1,0.5]];portConstraint=eastwest;whiteSpace=wrap;html=1;" parent="XaADTcSrrmSjubaQ3uNt-34" vertex="1">
          <mxGeometry y="26" width="263" height="26" as="geometry" />
        </mxCell>
        <mxCell id="XaADTcSrrmSjubaQ3uNt-36" value="+ text: text" style="text;strokeColor=none;fillColor=none;align=left;verticalAlign=top;spacingLeft=4;spacingRight=4;overflow=hidden;rotatable=0;points=[[0,0.5],[1,0.5]];portConstraint=eastwest;whiteSpace=wrap;html=1;" parent="XaADTcSrrmSjubaQ3uNt-34" vertex="1">
          <mxGeometry y="52" width="263" height="26" as="geometry" />
        </mxCell>
        <mxCell id="XaADTcSrrmSjubaQ3uNt-39" value="order" style="swimlane;fontStyle=0;childLayout=stackLayout;horizontal=1;startSize=26;fillColor=none;horizontalStack=0;resizeParent=1;resizeParentMax=0;resizeLast=0;collapsible=1;marginBottom=0;whiteSpace=wrap;html=1;" parent="1" vertex="1">
          <mxGeometry x="580" y="950" width="263" height="78" as="geometry" />
        </mxCell>
        <mxCell id="XaADTcSrrmSjubaQ3uNt-40" value="+ orderDate: date" style="text;strokeColor=none;fillColor=none;align=left;verticalAlign=top;spacingLeft=4;spacingRight=4;overflow=hidden;rotatable=0;points=[[0,0.5],[1,0.5]];portConstraint=eastwest;whiteSpace=wrap;html=1;" parent="XaADTcSrrmSjubaQ3uNt-39" vertex="1">
          <mxGeometry y="26" width="263" height="26" as="geometry" />
        </mxCell>
        <mxCell id="XaADTcSrrmSjubaQ3uNt-41" value="+ tableID: foreign key" style="text;strokeColor=none;fillColor=none;align=left;verticalAlign=top;spacingLeft=4;spacingRight=4;overflow=hidden;rotatable=0;points=[[0,0.5],[1,0.5]];portConstraint=eastwest;whiteSpace=wrap;html=1;" parent="XaADTcSrrmSjubaQ3uNt-39" vertex="1">
          <mxGeometry y="52" width="263" height="26" as="geometry" />
        </mxCell>
        <mxCell id="XaADTcSrrmSjubaQ3uNt-43" value="orderItem" style="swimlane;fontStyle=0;childLayout=stackLayout;horizontal=1;startSize=26;fillColor=none;horizontalStack=0;resizeParent=1;resizeParentMax=0;resizeLast=0;collapsible=1;marginBottom=0;whiteSpace=wrap;html=1;" parent="1" vertex="1">
          <mxGeometry x="940" y="950" width="263" height="130" as="geometry" />
        </mxCell>
        <mxCell id="XaADTcSrrmSjubaQ3uNt-44" value="+ quantity: int" style="text;strokeColor=none;fillColor=none;align=left;verticalAlign=top;spacingLeft=4;spacingRight=4;overflow=hidden;rotatable=0;points=[[0,0.5],[1,0.5]];portConstraint=eastwest;whiteSpace=wrap;html=1;" parent="XaADTcSrrmSjubaQ3uNt-43" vertex="1">
          <mxGeometry y="26" width="263" height="26" as="geometry" />
        </mxCell>
        <mxCell id="XaADTcSrrmSjubaQ3uNt-45" value="+ unitPrice:&amp;nbsp;decimal" style="text;strokeColor=none;fillColor=none;align=left;verticalAlign=top;spacingLeft=4;spacingRight=4;overflow=hidden;rotatable=0;points=[[0,0.5],[1,0.5]];portConstraint=eastwest;whiteSpace=wrap;html=1;" parent="XaADTcSrrmSjubaQ3uNt-43" vertex="1">
          <mxGeometry y="52" width="263" height="26" as="geometry" />
        </mxCell>
        <mxCell id="XaADTcSrrmSjubaQ3uNt-46" value="+ foodID: foreign key" style="text;strokeColor=none;fillColor=none;align=left;verticalAlign=top;spacingLeft=4;spacingRight=4;overflow=hidden;rotatable=0;points=[[0,0.5],[1,0.5]];portConstraint=eastwest;whiteSpace=wrap;html=1;" parent="XaADTcSrrmSjubaQ3uNt-43" vertex="1">
          <mxGeometry y="78" width="263" height="26" as="geometry" />
        </mxCell>
        <mxCell id="XaADTcSrrmSjubaQ3uNt-47" value="+ orderID: foreign key" style="text;strokeColor=none;fillColor=none;align=left;verticalAlign=top;spacingLeft=4;spacingRight=4;overflow=hidden;rotatable=0;points=[[0,0.5],[1,0.5]];portConstraint=eastwest;whiteSpace=wrap;html=1;" parent="XaADTcSrrmSjubaQ3uNt-43" vertex="1">
          <mxGeometry y="104" width="263" height="26" as="geometry" />
        </mxCell>
        <mxCell id="XaADTcSrrmSjubaQ3uNt-54" value="table" style="swimlane;fontStyle=0;childLayout=stackLayout;horizontal=1;startSize=26;fillColor=none;horizontalStack=0;resizeParent=1;resizeParentMax=0;resizeLast=0;collapsible=1;marginBottom=0;whiteSpace=wrap;html=1;" parent="1" vertex="1">
          <mxGeometry x="1283" y="950" width="263" height="78" as="geometry" />
        </mxCell>
        <mxCell id="XaADTcSrrmSjubaQ3uNt-55" value="+ numberOfGuests: int" style="text;strokeColor=none;fillColor=none;align=left;verticalAlign=top;spacingLeft=4;spacingRight=4;overflow=hidden;rotatable=0;points=[[0,0.5],[1,0.5]];portConstraint=eastwest;whiteSpace=wrap;html=1;" parent="XaADTcSrrmSjubaQ3uNt-54" vertex="1">
          <mxGeometry y="26" width="263" height="26" as="geometry" />
        </mxCell>
        <mxCell id="XaADTcSrrmSjubaQ3uNt-56" value="+ tableNo: int" style="text;strokeColor=none;fillColor=none;align=left;verticalAlign=top;spacingLeft=4;spacingRight=4;overflow=hidden;rotatable=0;points=[[0,0.5],[1,0.5]];portConstraint=eastwest;whiteSpace=wrap;html=1;" parent="XaADTcSrrmSjubaQ3uNt-54" vertex="1">
          <mxGeometry y="52" width="263" height="26" as="geometry" />
        </mxCell>
        <mxCell id="XaADTcSrrmSjubaQ3uNt-64" value="user" style="swimlane;fontStyle=0;childLayout=stackLayout;horizontal=1;startSize=26;fillColor=none;horizontalStack=0;resizeParent=1;resizeParentMax=0;resizeLast=0;collapsible=1;marginBottom=0;whiteSpace=wrap;html=1;" parent="1" vertex="1">
          <mxGeometry x="-1180" y="950" width="240" height="182" as="geometry" />
        </mxCell>
        <mxCell id="XaADTcSrrmSjubaQ3uNt-65" value="+ firstName: varchar&lt;span style=&quot;white-space: pre;&quot;&gt;&#x9;&lt;/span&gt;" style="text;strokeColor=none;fillColor=none;align=left;verticalAlign=top;spacingLeft=4;spacingRight=4;overflow=hidden;rotatable=0;points=[[0,0.5],[1,0.5]];portConstraint=eastwest;whiteSpace=wrap;html=1;" parent="XaADTcSrrmSjubaQ3uNt-64" vertex="1">
          <mxGeometry y="26" width="240" height="26" as="geometry" />
        </mxCell>
        <mxCell id="XaADTcSrrmSjubaQ3uNt-69" value="+ lastName: varchar&lt;span style=&quot;white-space: pre;&quot;&gt;&#x9;&lt;/span&gt;" style="text;strokeColor=none;fillColor=none;align=left;verticalAlign=top;spacingLeft=4;spacingRight=4;overflow=hidden;rotatable=0;points=[[0,0.5],[1,0.5]];portConstraint=eastwest;whiteSpace=wrap;html=1;" parent="XaADTcSrrmSjubaQ3uNt-64" vertex="1">
          <mxGeometry y="52" width="240" height="26" as="geometry" />
        </mxCell>
        <mxCell id="XaADTcSrrmSjubaQ3uNt-70" value="+ password: varchar&lt;span style=&quot;white-space: pre;&quot;&gt;&#x9;&lt;/span&gt;" style="text;strokeColor=none;fillColor=none;align=left;verticalAlign=top;spacingLeft=4;spacingRight=4;overflow=hidden;rotatable=0;points=[[0,0.5],[1,0.5]];portConstraint=eastwest;whiteSpace=wrap;html=1;" parent="XaADTcSrrmSjubaQ3uNt-64" vertex="1">
          <mxGeometry y="78" width="240" height="26" as="geometry" />
        </mxCell>
        <mxCell id="XaADTcSrrmSjubaQ3uNt-71" value="+ email: varchar&lt;span style=&quot;white-space: pre;&quot;&gt;&#x9;&lt;/span&gt;" style="text;strokeColor=none;fillColor=none;align=left;verticalAlign=top;spacingLeft=4;spacingRight=4;overflow=hidden;rotatable=0;points=[[0,0.5],[1,0.5]];portConstraint=eastwest;whiteSpace=wrap;html=1;" parent="XaADTcSrrmSjubaQ3uNt-64" vertex="1">
          <mxGeometry y="104" width="240" height="26" as="geometry" />
        </mxCell>
        <mxCell id="XaADTcSrrmSjubaQ3uNt-72" value="+ avatar: varchar&lt;span style=&quot;white-space: pre;&quot;&gt;&#x9;&lt;/span&gt;" style="text;strokeColor=none;fillColor=none;align=left;verticalAlign=top;spacingLeft=4;spacingRight=4;overflow=hidden;rotatable=0;points=[[0,0.5],[1,0.5]];portConstraint=eastwest;whiteSpace=wrap;html=1;" parent="XaADTcSrrmSjubaQ3uNt-64" vertex="1">
          <mxGeometry y="130" width="240" height="26" as="geometry" />
        </mxCell>
        <mxCell id="XaADTcSrrmSjubaQ3uNt-73" value="+ phone: varchar&lt;span style=&quot;white-space: pre;&quot;&gt;&#x9;&lt;/span&gt;" style="text;strokeColor=none;fillColor=none;align=left;verticalAlign=top;spacingLeft=4;spacingRight=4;overflow=hidden;rotatable=0;points=[[0,0.5],[1,0.5]];portConstraint=eastwest;whiteSpace=wrap;html=1;" parent="XaADTcSrrmSjubaQ3uNt-64" vertex="1">
          <mxGeometry y="156" width="240" height="26" as="geometry" />
        </mxCell>
        <mxCell id="90XMVgr9zmWWbjgobgk7-8" value="" style="edgeStyle=orthogonalEdgeStyle;rounded=0;orthogonalLoop=1;jettySize=auto;html=1;" edge="1" parent="1" source="90XMVgr9zmWWbjgobgk7-6" target="90XMVgr9zmWWbjgobgk7-7">
          <mxGeometry relative="1" as="geometry" />
        </mxCell>
        <mxCell id="90XMVgr9zmWWbjgobgk7-16" style="edgeStyle=orthogonalEdgeStyle;rounded=1;orthogonalLoop=1;jettySize=auto;html=1;entryX=0.5;entryY=1;entryDx=0;entryDy=0;curved=0;" edge="1" parent="1" source="90XMVgr9zmWWbjgobgk7-6" target="90XMVgr9zmWWbjgobgk7-13">
          <mxGeometry relative="1" as="geometry">
            <Array as="points">
              <mxPoint x="480" y="2650" />
              <mxPoint x="1280" y="2650" />
            </Array>
          </mxGeometry>
        </mxCell>
        <mxCell id="90XMVgr9zmWWbjgobgk7-6" value="customer" style="rounded=1;whiteSpace=wrap;html=1;" vertex="1" parent="1">
          <mxGeometry x="420" y="2510" width="120" height="60" as="geometry" />
        </mxCell>
        <mxCell id="90XMVgr9zmWWbjgobgk7-10" value="" style="edgeStyle=orthogonalEdgeStyle;rounded=0;orthogonalLoop=1;jettySize=auto;html=1;" edge="1" parent="1" source="90XMVgr9zmWWbjgobgk7-7" target="90XMVgr9zmWWbjgobgk7-9">
          <mxGeometry relative="1" as="geometry" />
        </mxCell>
        <mxCell id="90XMVgr9zmWWbjgobgk7-7" value="order" style="rounded=1;whiteSpace=wrap;html=1;" vertex="1" parent="1">
          <mxGeometry x="620" y="2510" width="120" height="60" as="geometry" />
        </mxCell>
        <mxCell id="90XMVgr9zmWWbjgobgk7-12" value="" style="edgeStyle=orthogonalEdgeStyle;rounded=0;orthogonalLoop=1;jettySize=auto;html=1;" edge="1" parent="1" source="90XMVgr9zmWWbjgobgk7-9" target="90XMVgr9zmWWbjgobgk7-11">
          <mxGeometry relative="1" as="geometry" />
        </mxCell>
        <mxCell id="90XMVgr9zmWWbjgobgk7-19" style="edgeStyle=orthogonalEdgeStyle;rounded=1;orthogonalLoop=1;jettySize=auto;html=1;entryX=0.5;entryY=0;entryDx=0;entryDy=0;curved=0;" edge="1" parent="1" source="90XMVgr9zmWWbjgobgk7-9" target="90XMVgr9zmWWbjgobgk7-17">
          <mxGeometry relative="1" as="geometry">
            <Array as="points">
              <mxPoint x="880" y="2430" />
              <mxPoint x="1480" y="2430" />
            </Array>
          </mxGeometry>
        </mxCell>
        <mxCell id="90XMVgr9zmWWbjgobgk7-9" value="chef" style="rounded=1;whiteSpace=wrap;html=1;" vertex="1" parent="1">
          <mxGeometry x="820" y="2510" width="120" height="60" as="geometry" />
        </mxCell>
        <mxCell id="90XMVgr9zmWWbjgobgk7-11" value="estimated time" style="rounded=1;whiteSpace=wrap;html=1;" vertex="1" parent="1">
          <mxGeometry x="1020" y="2510" width="120" height="60" as="geometry" />
        </mxCell>
        <mxCell id="90XMVgr9zmWWbjgobgk7-13" value="confirm order" style="rounded=1;whiteSpace=wrap;html=1;" vertex="1" parent="1">
          <mxGeometry x="1220" y="2520" width="120" height="60" as="geometry" />
        </mxCell>
        <mxCell id="90XMVgr9zmWWbjgobgk7-21" value="" style="edgeStyle=orthogonalEdgeStyle;rounded=0;orthogonalLoop=1;jettySize=auto;html=1;" edge="1" parent="1" source="90XMVgr9zmWWbjgobgk7-17" target="90XMVgr9zmWWbjgobgk7-20">
          <mxGeometry relative="1" as="geometry" />
        </mxCell>
        <mxCell id="90XMVgr9zmWWbjgobgk7-17" value="make order" style="whiteSpace=wrap;html=1;rounded=1;" vertex="1" parent="1">
          <mxGeometry x="1420" y="2510" width="120" height="60" as="geometry" />
        </mxCell>
        <mxCell id="90XMVgr9zmWWbjgobgk7-23" value="" style="edgeStyle=orthogonalEdgeStyle;rounded=0;orthogonalLoop=1;jettySize=auto;html=1;" edge="1" parent="1" source="90XMVgr9zmWWbjgobgk7-20" target="90XMVgr9zmWWbjgobgk7-22">
          <mxGeometry relative="1" as="geometry" />
        </mxCell>
        <mxCell id="90XMVgr9zmWWbjgobgk7-20" value="alert to waiter" style="whiteSpace=wrap;html=1;rounded=1;" vertex="1" parent="1">
          <mxGeometry x="1620" y="2510" width="120" height="60" as="geometry" />
        </mxCell>
        <mxCell id="90XMVgr9zmWWbjgobgk7-22" value="place order" style="whiteSpace=wrap;html=1;rounded=1;" vertex="1" parent="1">
          <mxGeometry x="1820" y="2510" width="120" height="60" as="geometry" />
        </mxCell>
        <mxCell id="90XMVgr9zmWWbjgobgk7-28" value="" style="edgeStyle=orthogonalEdgeStyle;rounded=0;orthogonalLoop=1;jettySize=auto;html=1;" edge="1" parent="1" source="90XMVgr9zmWWbjgobgk7-26" target="90XMVgr9zmWWbjgobgk7-27">
          <mxGeometry relative="1" as="geometry" />
        </mxCell>
        <mxCell id="90XMVgr9zmWWbjgobgk7-26" value="customer" style="rounded=1;whiteSpace=wrap;html=1;" vertex="1" parent="1">
          <mxGeometry x="420" y="2850" width="120" height="60" as="geometry" />
        </mxCell>
        <mxCell id="90XMVgr9zmWWbjgobgk7-33" value="" style="edgeStyle=orthogonalEdgeStyle;rounded=1;orthogonalLoop=1;jettySize=auto;html=1;entryX=0;entryY=0.5;entryDx=0;entryDy=0;exitX=0.5;exitY=1;exitDx=0;exitDy=0;curved=0;" edge="1" parent="1" source="90XMVgr9zmWWbjgobgk7-27" target="90XMVgr9zmWWbjgobgk7-32">
          <mxGeometry relative="1" as="geometry" />
        </mxCell>
        <mxCell id="90XMVgr9zmWWbjgobgk7-35" value="" style="edgeStyle=orthogonalEdgeStyle;rounded=1;orthogonalLoop=1;jettySize=auto;html=1;entryX=0;entryY=0.5;entryDx=0;entryDy=0;curved=0;" edge="1" parent="1" source="90XMVgr9zmWWbjgobgk7-27" target="90XMVgr9zmWWbjgobgk7-34">
          <mxGeometry relative="1" as="geometry">
            <Array as="points">
              <mxPoint x="680" y="3120" />
            </Array>
          </mxGeometry>
        </mxCell>
        <mxCell id="90XMVgr9zmWWbjgobgk7-27" value="choose billing&lt;br&gt;method" style="rounded=1;whiteSpace=wrap;html=1;" vertex="1" parent="1">
          <mxGeometry x="620" y="2850" width="120" height="60" as="geometry" />
        </mxCell>
        <mxCell id="90XMVgr9zmWWbjgobgk7-41" value="" style="edgeStyle=orthogonalEdgeStyle;rounded=0;orthogonalLoop=1;jettySize=auto;html=1;" edge="1" parent="1" source="90XMVgr9zmWWbjgobgk7-32" target="90XMVgr9zmWWbjgobgk7-40">
          <mxGeometry relative="1" as="geometry" />
        </mxCell>
        <mxCell id="90XMVgr9zmWWbjgobgk7-32" value="online" style="rounded=1;whiteSpace=wrap;html=1;" vertex="1" parent="1">
          <mxGeometry x="820" y="2950" width="120" height="60" as="geometry" />
        </mxCell>
        <mxCell id="90XMVgr9zmWWbjgobgk7-37" value="" style="edgeStyle=orthogonalEdgeStyle;rounded=0;orthogonalLoop=1;jettySize=auto;html=1;" edge="1" parent="1" source="90XMVgr9zmWWbjgobgk7-34" target="90XMVgr9zmWWbjgobgk7-36">
          <mxGeometry relative="1" as="geometry" />
        </mxCell>
        <mxCell id="90XMVgr9zmWWbjgobgk7-34" value="by cash" style="rounded=1;whiteSpace=wrap;html=1;" vertex="1" parent="1">
          <mxGeometry x="820" y="3090" width="120" height="60" as="geometry" />
        </mxCell>
        <mxCell id="90XMVgr9zmWWbjgobgk7-39" value="" style="edgeStyle=orthogonalEdgeStyle;rounded=0;orthogonalLoop=1;jettySize=auto;html=1;" edge="1" parent="1" source="90XMVgr9zmWWbjgobgk7-36" target="90XMVgr9zmWWbjgobgk7-38">
          <mxGeometry relative="1" as="geometry" />
        </mxCell>
        <mxCell id="90XMVgr9zmWWbjgobgk7-36" value="alert to&lt;br&gt;waiter" style="rounded=1;whiteSpace=wrap;html=1;" vertex="1" parent="1">
          <mxGeometry x="1020" y="3090" width="120" height="60" as="geometry" />
        </mxCell>
        <mxCell id="90XMVgr9zmWWbjgobgk7-38" value="give bill on&lt;br&gt;respective table" style="rounded=1;whiteSpace=wrap;html=1;" vertex="1" parent="1">
          <mxGeometry x="1220" y="3090" width="120" height="60" as="geometry" />
        </mxCell>
        <mxCell id="90XMVgr9zmWWbjgobgk7-40" value="choose multiple&lt;br&gt;billing options" style="rounded=1;whiteSpace=wrap;html=1;" vertex="1" parent="1">
          <mxGeometry x="1020" y="2950" width="120" height="60" as="geometry" />
        </mxCell>
        <mxCell id="90XMVgr9zmWWbjgobgk7-44" value="" style="edgeStyle=orthogonalEdgeStyle;rounded=0;orthogonalLoop=1;jettySize=auto;html=1;" edge="1" parent="1" source="90XMVgr9zmWWbjgobgk7-42" target="90XMVgr9zmWWbjgobgk7-43">
          <mxGeometry relative="1" as="geometry" />
        </mxCell>
        <mxCell id="90XMVgr9zmWWbjgobgk7-58" value="" style="edgeStyle=orthogonalEdgeStyle;rounded=0;orthogonalLoop=1;jettySize=auto;html=1;entryX=0;entryY=0.5;entryDx=0;entryDy=0;curved=1;" edge="1" parent="1" source="90XMVgr9zmWWbjgobgk7-42" target="90XMVgr9zmWWbjgobgk7-57">
          <mxGeometry relative="1" as="geometry">
            <Array as="points">
              <mxPoint x="480" y="1970" />
            </Array>
          </mxGeometry>
        </mxCell>
        <mxCell id="90XMVgr9zmWWbjgobgk7-42" value="customer" style="rounded=1;whiteSpace=wrap;html=1;" vertex="1" parent="1">
          <mxGeometry x="420" y="2080" width="120" height="60" as="geometry" />
        </mxCell>
        <mxCell id="90XMVgr9zmWWbjgobgk7-46" value="" style="edgeStyle=orthogonalEdgeStyle;rounded=0;orthogonalLoop=1;jettySize=auto;html=1;" edge="1" parent="1" source="90XMVgr9zmWWbjgobgk7-43" target="90XMVgr9zmWWbjgobgk7-45">
          <mxGeometry relative="1" as="geometry" />
        </mxCell>
        <mxCell id="90XMVgr9zmWWbjgobgk7-43" value="check menu" style="rounded=1;whiteSpace=wrap;html=1;" vertex="1" parent="1">
          <mxGeometry x="620" y="2080" width="120" height="60" as="geometry" />
        </mxCell>
        <mxCell id="90XMVgr9zmWWbjgobgk7-48" value="" style="edgeStyle=orthogonalEdgeStyle;rounded=0;orthogonalLoop=1;jettySize=auto;html=1;" edge="1" parent="1" source="90XMVgr9zmWWbjgobgk7-45" target="90XMVgr9zmWWbjgobgk7-47">
          <mxGeometry relative="1" as="geometry" />
        </mxCell>
        <mxCell id="90XMVgr9zmWWbjgobgk7-45" value="add items in cart" style="rounded=1;whiteSpace=wrap;html=1;" vertex="1" parent="1">
          <mxGeometry x="820" y="2080" width="120" height="60" as="geometry" />
        </mxCell>
        <mxCell id="90XMVgr9zmWWbjgobgk7-50" value="" style="edgeStyle=orthogonalEdgeStyle;rounded=0;orthogonalLoop=1;jettySize=auto;html=1;" edge="1" parent="1" source="90XMVgr9zmWWbjgobgk7-47" target="90XMVgr9zmWWbjgobgk7-49">
          <mxGeometry relative="1" as="geometry" />
        </mxCell>
        <mxCell id="90XMVgr9zmWWbjgobgk7-47" value="specify quantity" style="rounded=1;whiteSpace=wrap;html=1;" vertex="1" parent="1">
          <mxGeometry x="1020" y="2080" width="120" height="60" as="geometry" />
        </mxCell>
        <mxCell id="90XMVgr9zmWWbjgobgk7-52" value="" style="edgeStyle=orthogonalEdgeStyle;rounded=0;orthogonalLoop=1;jettySize=auto;html=1;" edge="1" parent="1" source="90XMVgr9zmWWbjgobgk7-49" target="90XMVgr9zmWWbjgobgk7-51">
          <mxGeometry relative="1" as="geometry" />
        </mxCell>
        <mxCell id="90XMVgr9zmWWbjgobgk7-49" value="add extra note on each item" style="rounded=1;whiteSpace=wrap;html=1;" vertex="1" parent="1">
          <mxGeometry x="1220" y="2080" width="120" height="60" as="geometry" />
        </mxCell>
        <mxCell id="90XMVgr9zmWWbjgobgk7-54" value="" style="edgeStyle=orthogonalEdgeStyle;rounded=0;orthogonalLoop=1;jettySize=auto;html=1;" edge="1" parent="1" source="90XMVgr9zmWWbjgobgk7-51" target="90XMVgr9zmWWbjgobgk7-53">
          <mxGeometry relative="1" as="geometry" />
        </mxCell>
        <mxCell id="90XMVgr9zmWWbjgobgk7-51" value="check estimated&lt;br&gt;time" style="rounded=1;whiteSpace=wrap;html=1;" vertex="1" parent="1">
          <mxGeometry x="1420" y="2080" width="120" height="60" as="geometry" />
        </mxCell>
        <mxCell id="90XMVgr9zmWWbjgobgk7-53" value="confirm order" style="rounded=1;whiteSpace=wrap;html=1;" vertex="1" parent="1">
          <mxGeometry x="1620" y="2080" width="120" height="60" as="geometry" />
        </mxCell>
        <mxCell id="90XMVgr9zmWWbjgobgk7-57" value="ask for waiter" style="rounded=1;whiteSpace=wrap;html=1;" vertex="1" parent="1">
          <mxGeometry x="620" y="1940" width="120" height="60" as="geometry" />
        </mxCell>
      </root>
    </mxGraphModel>
  </diagram>
</mxfile>
